<mxfile host="app.diagrams.net" modified="2024-05-23T12:05:06.608Z" agent="Mozilla/5.0 (Windows NT 10.0; Win64; x64) AppleWebKit/537.36 (KHTML, like Gecko) Chrome/125.0.0.0 Safari/537.36 Edg/125.0.0.0" version="24.4.6" etag="7Gb_hs0KIZqaxmLgkw1D" type="github">
  <diagram name="第 1 页" id="GFw8Nm25ayjT1xTYEOY1">
    <mxGraphModel>
      <root>
        <mxCell id="0" />
        <mxCell id="1" parent="0" />
      </root>
    </mxGraphModel>
  </diagram>
</mxfile>
